<svg xmlns="http://www.w3.org/2000/svg" xmlns:xlink="http://www.w3.org/1999/xlink" version="1.1" x="0px" y="0px" viewBox="0 0 10 12.5" style="enable-background:new 0 0 10 10;" xml:space="preserve"><g><path d="M5,0C2.2,0,0,2.2,0,5s2.2,5,5,5c2.8,0,5-2.2,5-5S7.8,0,5,0z M7.8,7.6C7.5,7.9,7.3,8,6.9,7.9L6.6,7.8   L6.6,8.1C6.4,8.5,6.2,8.6,5.8,8.7C5.4,8.9,5,9.7,5,9.7l0,0l0,0c0,0-0.4-0.8-0.8-1C3.8,8.6,3.6,8.5,3.4,8.1L3.4,7.8L3.1,7.9   C2.7,8,2.5,7.9,2.2,7.6C1.8,7.3,0.9,7.4,0.9,7.4l0,0l0,0c0,0,0.5-0.7,0.4-1.2C1.3,5.7,1.3,5.5,1.6,5.2L1.8,5L1.6,4.8   C1.3,4.5,1.3,4.3,1.3,3.9c0.1-0.5-0.4-1.2-0.4-1.2l0,0l0,0c0,0,0.9,0.1,1.3-0.2C2.5,2.1,2.7,2,3.1,2.1l0.3,0.1l0.1-0.3   c0.1-0.4,0.3-0.5,0.7-0.7c0.5-0.2,0.8-1,0.8-1l0,0l0,0c0,0,0.4,0.8,0.8,1c0.4,0.1,0.6,0.3,0.7,0.7l0.1,0.3l0.3-0.1   c0.4-0.1,0.6,0,0.9,0.3c0.4,0.3,1.3,0.2,1.3,0.2l0,0l0,0c0,0-0.5,0.7-0.4,1.2c0.1,0.4,0.1,0.7-0.2,0.9L8.2,5l0.2,0.2   c0.3,0.3,0.3,0.5,0.2,0.9C8.6,6.6,9.1,7.4,9.1,7.4l0,0l0,0C9.1,7.4,8.2,7.3,7.8,7.6z"/><path d="M5.2,3.8C5.1,3.4,5,3.1,5,2.7c0,0.3-0.1,0.7-0.2,1C4.7,4.1,4.7,4.5,5,4.8C5.3,4.5,5.3,4.1,5.2,3.8z"/><path d="M4.8,6.2C4.9,6.6,5,6.9,5,7.3c0-0.3,0.1-0.7,0.2-1c0.1-0.3,0-0.8-0.2-1.1C4.7,5.5,4.7,5.9,4.8,6.2z"/><path d="M4.9,4.9C4.7,4.6,4.4,4.3,4,4.2C3.7,4.1,3.3,4,3,3.9C3.3,4,3.6,4.3,3.8,4.6C4.1,4.8,4.5,5,4.9,4.9z"/><path d="M6.2,5.4C5.9,5.2,5.5,5,5.1,5.1C5.3,5.4,5.6,5.7,6,5.8C6.3,5.9,6.7,6,7,6.1C6.7,6,6.4,5.7,6.2,5.4z"/><path d="M8,6.4C7.8,6,8,5.9,7.7,5.4C7.5,5.1,7.1,5,6.7,5c0.3,0,0.7-0.1,0.9-0.4C8,4.1,7.8,4,8,3.6   c0.2-0.4,0.7-0.7,0.7-0.7S8.1,3.2,7.7,3.1c-0.4,0-0.5-0.2-1-0.2c-0.3,0-0.6,0.3-0.8,0.6C6,3.2,6.1,2.8,6,2.5C5.7,2,5.5,2.1,5.3,1.7   C5,1.4,5,0.8,5,0.8s0,0.6-0.3,0.9C4.5,2.1,4.3,2,4,2.5C3.9,2.8,4,3.2,4.1,3.5C3.9,3.2,3.6,2.9,3.3,2.9c-0.6,0-0.6,0.2-1,0.2   c-0.4,0-0.9-0.2-0.9-0.2S1.8,3.2,2,3.6c0.2,0.4,0,0.5,0.3,1C2.5,4.9,2.9,5,3.3,5C2.9,5,2.5,5.1,2.3,5.4C2,5.9,2.2,6,2,6.4   C1.8,6.8,1.4,7.1,1.4,7.1s0.5-0.3,0.9-0.2c0.4,0,0.5,0.2,1,0.2c0.3,0,0.6-0.3,0.8-0.6C4,6.8,3.9,7.2,4,7.5C4.3,8,4.5,7.9,4.7,8.3   C5,8.6,5,9.2,5,9.2s0-0.6,0.3-0.9C5.5,7.9,5.7,8,6,7.5c0.2-0.3,0.1-0.7-0.1-1c0.2,0.3,0.5,0.6,0.8,0.6c0.6,0,0.6-0.2,1-0.2   c0.4,0,0.9,0.2,0.9,0.2S8.2,6.8,8,6.4z M7,6.4c-0.6,0.1-1.1,0-1.4-0.5l0,0C5.8,6.5,5.6,7,5.3,7.4C5.1,7.7,5,8.1,5,8.4   c0-0.4-0.1-0.8-0.3-1C4.4,7,4.2,6.5,4.5,5.9l0,0C4.1,6.5,3.6,6.5,3,6.4c-0.3,0-0.7,0.1-1,0.3C2.3,6.5,2.7,6.3,2.8,6   C3,5.5,3.3,5,3.9,5v0C3.3,5,3,4.5,2.8,4C2.7,3.7,2.3,3.5,2,3.3c0.3,0.2,0.7,0.3,1,0.3c0.6-0.1,1.1,0,1.4,0.5l0,0   C4.2,3.5,4.4,3,4.7,2.6C4.9,2.3,5,1.9,5,1.6c0,0.4,0.1,0.8,0.3,1C5.6,3,5.8,3.5,5.5,4.1l0,0C5.9,3.5,6.4,3.5,7,3.6   c0.3,0,0.7-0.1,1-0.3C7.7,3.5,7.3,3.7,7.2,4C7,4.5,6.7,5,6.1,5v0c0.7,0,1,0.5,1.2,1C7.3,6.3,7.7,6.5,8,6.7C7.7,6.6,7.3,6.4,7,6.4z"/><path d="M3.8,5.4C3.6,5.7,3.3,6,3,6.1C3.3,6,3.7,5.9,4,5.8c0.4-0.1,0.7-0.3,0.8-0.7C4.5,5,4.1,5.2,3.8,5.4z"/><path d="M6.2,4.6C6.4,4.3,6.7,4,7,3.9C6.7,4,6.3,4.1,6,4.2C5.6,4.3,5.3,4.6,5.1,4.9C5.5,5,5.9,4.8,6.2,4.6z"/></g><text x="0" y="25" fill="#000000" font-size="5px" font-weight="bold" font-family="'Helvetica Neue', Helvetica, Arial-Unicode, Arial, Sans-serif">Created by Jessie He</text><text x="0" y="30" fill="#000000" font-size="5px" font-weight="bold" font-family="'Helvetica Neue', Helvetica, Arial-Unicode, Arial, Sans-serif">from the Noun Project</text></svg>